<svg width="1366" height="768" viewBox="0 0 1366 768" fill="none" xmlns="http://www.w3.org/2000/svg">
<g clip-path="url(#clip0_12_8972)">
<path d="M1367 0H0V768H48V86C48 80.4771 52.4772 76 58 76H1356C1361.52 76 1366 80.4771 1366 86V728H1367V0Z" fill="black" fill-opacity="0.2"/>
<path d="M1207 62C1207.55 62 1208 61.5523 1208 61C1208 60.4477 1207.55 60 1207 60C1206.45 60 1206 60.4477 1206 61C1206 61.5523 1206.45 62 1207 62Z" fill="white"/>
<path d="M1211 61C1211 61.5523 1210.55 62 1210 62C1209.45 62 1209 61.5523 1209 61C1209 60.4477 1209.45 60 1210 60C1210.55 60 1211 60.4477 1211 61Z" fill="white"/>
<path d="M1214 61C1214 61.5523 1213.55 62 1213 62C1212.45 62 1212 61.5523 1212 61C1212 60.4477 1212.45 60 1213 60C1213.55 60 1214 60.4477 1214 61Z" fill="white"/>
<g clip-path="url(#clip1_12_8972)">
<path d="M1293.49 49C1293.21 49 1292.99 49.2239 1292.99 49.5C1292.99 49.7761 1293.21 50 1293.49 50H1296.49C1296.76 50 1296.99 49.7761 1296.99 49.5C1296.99 49.2239 1296.76 49 1296.49 49H1293.49Z" fill="white"/>
<path fill-rule="evenodd" clip-rule="evenodd" d="M1292.37 63.5476L1294.99 65L1297.6 63.5476C1297.84 63.4154 1297.99 63.1644 1297.99 62.892V55.9228C1298.93 55.6829 1299.67 54.9068 1299.83 53.911L1300.5 49.911C1300.75 48.3872 1299.58 47 1298.03 47H1291.94C1290.39 47 1289.22 48.3872 1289.47 49.911L1290.14 53.911C1290.3 54.9069 1291.04 55.683 1291.99 55.9228V62.892C1291.99 63.1644 1292.13 63.4154 1292.37 63.5476ZM1292.99 55.1456L1292.23 54.9538C1291.67 54.8098 1291.22 54.3433 1291.12 53.7466L1290.46 49.7466C1290.3 48.8323 1291.01 48 1291.94 48H1298.03C1298.96 48 1299.67 48.8323 1299.51 49.7466L1298.85 53.7466C1298.75 54.3433 1298.3 54.8097 1297.74 54.9537L1296.99 55.1456V62.7449L1294.99 63.856L1292.99 62.7449V55.1456Z" fill="white"/>
<path d="M1297.99 61.9945C1298.27 62 1298.6 62 1298.99 62H1302.99C1304.39 62 1305.09 62 1305.62 61.7275C1306.09 61.4878 1306.47 61.1054 1306.71 60.635C1306.99 60.1002 1306.99 59.4001 1306.99 58V54C1306.99 52.5999 1306.99 51.8998 1306.71 51.365C1306.47 50.8946 1306.09 50.5122 1305.62 50.2725C1305.09 50 1304.39 50 1302.99 50H1300.49L1300.32 51H1302.99C1303.7 51 1304.18 51.0008 1304.55 51.0307C1304.9 51.0597 1305.06 51.111 1305.17 51.1635C1305.45 51.3073 1305.68 51.5368 1305.82 51.819C1305.87 51.9219 1305.93 52.0844 1305.95 52.4394C1305.98 52.8062 1305.99 53.2834 1305.99 54H1299.82C1299.74 54.3719 1299.58 54.711 1299.37 55L1305.99 55V58C1305.99 58.7166 1305.98 59.1938 1305.95 59.5606C1305.93 59.9156 1305.87 60.0781 1305.82 60.181C1305.68 60.4632 1305.45 60.6927 1305.17 60.8365C1305.06 60.889 1304.9 60.9403 1304.55 60.9693C1304.18 60.9992 1303.7 61 1302.99 61H1298.99C1298.58 61 1298.26 60.9998 1297.99 60.9943V61.9945Z" fill="white"/>
</g>
<path fill-rule="evenodd" clip-rule="evenodd" d="M1247 53H1253C1253.55 53 1254 53.4477 1254 54V58C1254 58.5523 1253.55 59 1253 59H1247C1246.45 59 1246 58.5523 1246 58V54C1246 53.4477 1246.45 53 1247 53Z" fill="white"/>
<path fill-rule="evenodd" clip-rule="evenodd" d="M1262 54H1263C1263.55 54 1264 54.4477 1264 55V57C1264 57.5523 1263.55 58 1263 58H1262V59C1262 60.1046 1261.1 61 1260 61H1246C1244.9 61 1244 60.1046 1244 59V53C1244 51.8954 1244.9 51 1246 51H1260C1261.1 51 1262 51.8954 1262 53V54ZM1246 52C1245.45 52 1245 52.4477 1245 53V59C1245 59.5523 1245.45 60 1246 60H1260C1260.55 60 1261 59.5523 1261 59V53C1261 52.4477 1260.55 52 1260 52H1246Z" fill="white"/>
<g clip-path="url(#clip2_12_8972)">
<path d="M1337 63.5C1337 63.2238 1337.22 63 1337.5 63H1347.5C1347.78 63 1348 63.2238 1348 63.5C1348 63.7761 1347.78 64 1347.5 64H1337.5C1337.22 64 1337 63.7761 1337 63.5Z" fill="white"/>
<path d="M1338 56.2928C1337.81 56.0975 1337.49 56.0975 1337.29 56.2928C1337.1 56.4881 1337.1 56.8047 1337.29 57L1342.5 62L1347.7 57C1347.89 56.8047 1347.89 56.4881 1347.7 56.2928C1347.5 56.0975 1347.18 56.0975 1346.99 56.2928L1343 60.1V49.5C1343 49.2239 1342.78 49 1342.5 49C1342.22 49 1342 49.2239 1342 49.5V60.1L1338 56.2928Z" fill="white"/>
</g>
<path d="M183 49C183 44.0294 187.029 40 192 40H1165.5C1168.81 40 1171.5 42.6863 1171.5 46V56V66C1171.5 69.3137 1168.81 72 1165.5 72H192C187.029 72 183 67.9706 183 63V49Z" fill="white" stroke="#FFCC00" stroke-width="2"/>
<rect x="208" y="44" width="24" height="24" rx="6" fill="white" fill-opacity="0.1"/>
<path fill-rule="evenodd" clip-rule="evenodd" d="M1249.5 19H1258.5C1258.78 19 1259 18.776 1259 18.5C1259 18.224 1258.78 18 1258.5 18H1249.5C1249.22 18 1249 18.224 1249 18.5C1249 18.776 1249.22 19 1249.5 19Z" fill="white"/>
<path fill-rule="evenodd" clip-rule="evenodd" d="M1205.5 19H1214.5C1214.78 19 1215 18.776 1215 18.5C1215 18.224 1214.78 18 1214.5 18H1205.5C1205.22 18 1205 18.224 1205 18.5C1205 18.776 1205.22 19 1205.5 19Z" fill="white"/>
<path fill-rule="evenodd" clip-rule="evenodd" d="M1205.5 15H1214.5C1214.78 15 1215 14.776 1215 14.5C1215 14.224 1214.78 14 1214.5 14H1205.5C1205.22 14 1205 14.224 1205 14.5C1205 14.776 1205.22 15 1205.5 15Z" fill="white"/>
<path fill-rule="evenodd" clip-rule="evenodd" d="M1205.5 23H1214.5C1214.78 23 1215 22.776 1215 22.5C1215 22.224 1214.78 22 1214.5 22H1205.5C1205.22 22 1205 22.224 1205 22.5C1205 22.776 1205.22 23 1205.5 23Z" fill="white"/>
<path fill-rule="evenodd" clip-rule="evenodd" d="M1163 14H1162C1160.9 14 1160 14.8954 1160 16V24.2674C1160 24.8726 1160.68 25.2286 1161.18 24.8837L1164.5 22.58L1167.82 24.8837C1168.32 25.2286 1169 24.8726 1169 24.2674V20.62L1170.82 21.8837C1171.32 22.2286 1172 21.8726 1172 21.2674V13C1172 11.8954 1171.1 11 1170 11H1165C1163.9 11 1163 11.8954 1163 13V14ZM1171 13V20.7898L1169 19.4032V16C1169 14.8954 1168.1 14 1167 14H1164V13C1164 12.4477 1164.45 12 1165 12H1170C1170.55 12 1171 12.4477 1171 13ZM1165.07 21.7582C1164.73 21.5206 1164.27 21.5206 1163.93 21.7582L1161 23.7898V16C1161 15.4477 1161.45 15 1162 15H1167C1167.55 15 1168 15.4477 1168 16V23.7898L1165.07 21.7582Z" fill="white"/>
<path fill-rule="evenodd" clip-rule="evenodd" d="M1303 13H1295V15H1293V23H1301V21H1303V13ZM1301 20H1302V14H1296V15H1301V20ZM1294 16H1300V22H1294V16Z" fill="white"/>
<path fill-rule="evenodd" clip-rule="evenodd" d="M1346.15 13.1466C1346.34 12.9511 1346.66 12.9511 1346.85 13.1466C1347.05 13.3416 1347.05 13.6586 1346.85 13.8536L1342.71 18.0001L1346.85 22.1466C1347.05 22.3416 1347.05 22.6586 1346.85 22.8536C1346.66 23.0491 1346.34 23.0491 1346.15 22.8536L1342 18.7071L1337.85 22.8536C1337.66 23.0491 1337.34 23.0491 1337.15 22.8536C1336.95 22.6586 1336.95 22.3416 1337.15 22.1466L1341.29 18.0001L1337.15 13.8536C1336.95 13.6586 1336.95 13.3416 1337.15 13.1466C1337.34 12.9511 1337.66 12.9511 1337.85 13.1466L1342 17.2931L1346.15 13.1466Z" fill="white"/>
<rect opacity="0.2" x="47" y="10" width="1" height="56" fill="white"/>
<rect x="6" y="652" width="36" height="72" rx="10" fill="white" fill-opacity="0.3"/>
<mask id="mask0_12_8972" style="mask-type:alpha" maskUnits="userSpaceOnUse" x="12" y="660" width="24" height="24">
<circle cx="24" cy="672" r="12" fill="white"/>
</mask>
<g mask="url(#mask0_12_8972)">
<rect x="12" y="660" width="24" height="24" fill="#FED35A"/>
<rect x="12" y="660" width="24" height="24" fill="url(#paint0_linear_12_8972)"/>
<rect x="12" y="660" width="24" height="24" fill="url(#paint1_linear_12_8972)"/>
<path d="M36 665.083L25.5752 674.002C24.6679 674.778 23.3305 674.778 22.4232 674.002L12 665.084V660H36V665.083Z" fill="#FC3F1D"/>
<path d="M36 665.083L25.5752 674.002C24.6679 674.778 23.3305 674.778 22.4232 674.002L12 665.084V660H36V665.083Z" fill="url(#paint2_linear_12_8972)"/>
</g>
<path fill-rule="evenodd" clip-rule="evenodd" d="M23.5 697C23.2239 697 23 697.224 23 697.5V704H16.5C16.2239 704 16 704.224 16 704.5C16 704.776 16.2239 705 16.5 705H23V711.5C23 711.776 23.2239 712 23.5 712C23.7761 712 24 711.776 24 711.5V705H30.5C30.7761 705 31 704.776 31 704.5C31 704.224 30.7761 704 30.5 704H24V697.5C24 697.224 23.7761 697 23.5 697Z" fill="white"/>
<path d="M24 759C31.732 759 38 752.732 38 745C38 737.268 31.732 731 24 731C16.268 731 10 737.268 10 745C10 752.732 16.268 759 24 759Z" fill="#A026FF"/>
<path d="M17.5599 749.62C18.5649 750.647 21.2714 751.289 23.9999 751.3C26.7282 751.289 29.435 750.647 30.44 749.62C32.937 747.068 26.8377 737.314 24.003 737.3C21.162 737.314 15.0628 747.068 17.5599 749.62Z" fill="white"/>
<path fill-rule="evenodd" clip-rule="evenodd" d="M23.9991 28.835C18.0246 28.835 13.1641 23.9745 13.1641 18C13.1641 12.0256 18.0246 7.16504 23.9991 7.16504C29.9735 7.16504 34.8341 12.0256 34.8341 18C34.8341 23.9745 29.9735 28.835 23.9991 28.835Z" fill="#AFAFAF"/>
<mask id="mask1_12_8972" style="mask-type:alpha" maskUnits="userSpaceOnUse" x="13" y="7" width="22" height="22">
<path fill-rule="evenodd" clip-rule="evenodd" d="M13 7H35V29H13" fill="white"/>
</mask>
<g mask="url(#mask1_12_8972)">
<path fill-rule="evenodd" clip-rule="evenodd" d="M28.2683 12.215C28.2683 12.215 27.1683 12.1627 26.6446 12.0045C27.116 11.5309 27.116 10.6357 27.116 10.6357C27.116 10.6357 25.9636 11.1093 24.3398 11.1093C23.1874 11.0569 22.7683 10.8988 21.9302 11.7416C20.9351 12.7415 20.9351 13.005 20.3064 13.005C20.8302 13.7419 20.5683 14.4795 20.5683 14.4795L20.516 15.5852L20.5683 15.7958C20.5683 15.7958 20.5683 15.8482 20.6208 15.9535C20.6208 16.0064 20.6208 16.1117 20.6732 16.164L20.8302 17.0068C20.8302 17.0068 20.7779 17.0593 20.7255 17.0068C20.5683 16.7963 20.3589 16.691 20.097 16.691C19.9398 16.691 19.6779 17.1121 19.8874 17.6909C20.0445 18.1127 20.2017 18.3756 20.3589 18.9549C20.516 19.5343 20.8302 19.9554 20.9874 19.8501C21.0398 19.7972 21.0921 19.6396 21.1446 19.376C21.1446 19.3237 21.197 19.376 21.2493 19.4289C21.3017 19.9554 21.4065 20.4289 21.5112 20.6924C21.616 20.8506 21.7208 21.0611 21.8255 21.2188C21.7208 22.114 21.616 23.2197 21.4065 24.062C20.1036 24.4149 18.1351 25 16.3789 25.4261C18.3861 27.5694 20.9621 28.6264 24.1302 28.6264C26.5958 28.6264 28.4974 27.9864 30.3317 26.6164C28.8198 25.7094 26.9356 24.3779 26.1208 24.3779H24.1302C23.6589 24.3779 22.6636 23.9567 22.5589 23.5886C22.4541 23.325 22.4541 22.851 22.5064 22.4298C22.5064 22.3775 22.6112 22.3775 22.6636 22.4298C23.0826 22.9039 23.2921 23.2197 23.7112 23.2197H24.6541C25.0208 23.2197 26.2779 22.114 26.8017 20.7453C26.9065 20.4289 27.0112 19.9025 27.0636 19.3237C27.0636 19.2707 27.116 19.2178 27.116 19.2707C27.1683 19.5343 27.2732 19.8501 27.3255 19.8501C27.4827 19.9554 27.6921 19.5343 27.9541 18.9549C28.216 18.4285 28.216 18.1127 28.3207 17.6909C28.4779 17.1121 28.2683 16.691 28.1112 16.691C27.9541 16.691 27.8493 16.7434 27.7446 16.8487C27.6921 16.8487 27.6398 16.8487 27.6398 16.7963C27.6398 16.4276 27.6921 15.8482 28.1112 15.5323C27.5351 15.0059 27.9017 14.1108 27.9017 14.1108C28.1112 14.216 28.4255 14.216 28.4255 14.216L28.0064 13.5314C28.3207 13.479 28.5826 13.2156 28.5826 13.2156C28.5826 13.2156 27.7446 13.005 27.3255 12.6891C27.6921 12.5838 28.2683 12.215 28.2683 12.215Z" fill="white"/>
<path d="M34.5 18C34.5 23.799 29.799 28.5 24 28.5C18.201 28.5 13.5 23.799 13.5 18C13.5 12.201 18.201 7.5 24 7.5C29.799 7.5 34.5 12.201 34.5 18Z" stroke="#AFAFAF"/>
</g>
<path fill-rule="evenodd" clip-rule="evenodd" d="M26.328 47.7709L26.2831 47.0496L25.905 46.9965L25.7221 47.5185L25.7205 47.523C25.4614 48.2419 24.9033 48.8359 24.1677 49.1246L24.156 49.1292L23.7735 49.2689L23.7415 49.2784C22.9319 49.5178 22.1983 49.9633 21.6125 50.5713C21.0268 51.1792 20.6088 51.9288 20.3997 52.7467C20.3996 52.7468 20.3997 52.7467 20.3997 52.7467L19.1136 57.7775C19.1134 57.778 19.1133 57.7785 19.1132 57.779C18.9606 58.382 18.6887 58.9483 18.3135 59.4444C17.9381 59.9409 17.4668 60.357 16.9276 60.6682L16.9186 60.6734L16.5028 60.9026C16.4167 60.9541 16.3469 61.0289 16.3015 61.1184C16.255 61.2103 16.2361 61.3138 16.2473 61.4161L16.2502 61.443L16.2528 61.4875C16.2775 61.64 16.3981 61.7545 16.5409 61.7746L22.281 62.5813L22.4336 63.3124C22.4932 63.5975 22.6108 63.8679 22.7797 64.1064C22.976 64.3836 23.236 64.6097 23.5377 64.7657C23.8394 64.9217 24.1741 65.0032 24.5138 65.0032C24.8535 65.0032 25.1882 64.9217 25.4899 64.7657C25.7916 64.6097 26.0516 64.3836 26.2479 64.1064C26.3018 64.0303 26.3505 63.951 26.3937 63.869L26.7419 63.2083L31.208 63.8359C31.3564 63.8568 31.4971 63.7834 31.564 63.6399L31.5798 63.5948L31.5911 63.5675C31.6721 63.3718 31.6272 63.1548 31.4897 63.013L31.1466 62.6714L31.1377 62.6621C30.2464 61.7305 29.8439 60.4634 29.8439 59.1875V53.8597L29.8444 53.8443C29.871 52.9229 29.7877 52.347 29.4224 51.6581C29.0269 50.9123 28.4445 50.2818 27.7322 49.8285L27.7041 49.8106L27.3749 49.5709L27.365 49.5632C26.8133 49.141 26.4365 48.5095 26.3344 47.815L26.328 47.7709ZM32.2443 62.2648C32.6855 62.7131 32.8163 63.386 32.5727 63.9741L32.5548 64.0252C32.3097 64.6238 31.702 64.9783 31.0601 64.8881L27.3336 64.3644C27.2688 64.4874 27.1958 64.6064 27.1149 64.7205C26.8204 65.1363 26.4306 65.4754 25.978 65.7095C25.5254 65.9435 25.0233 66.0657 24.5138 66.0657C24.0043 66.0657 23.5022 65.9435 23.0496 65.7095C22.597 65.4754 22.2072 65.1363 21.9127 64.7205C21.6593 64.3628 21.4828 63.9572 21.3936 63.5295L16.393 62.8268C15.7617 62.738 15.2647 62.2283 15.1941 61.5853L15.191 61.5312C15.1575 61.224 15.2141 60.9137 15.3538 60.6381C15.4935 60.3625 15.7103 60.1334 15.9779 59.9788L16.3966 59.7479C16.8126 59.5078 17.1763 59.1867 17.4661 58.8035C17.7558 58.4204 17.9657 57.983 18.0834 57.5172L19.3703 52.4836C19.625 51.4874 20.134 50.5745 20.8474 49.834C21.5608 49.0936 22.4542 48.5511 23.4402 48.2595L23.7795 48.1355C24.2224 47.9617 24.5627 47.6018 24.721 47.1627L24.9718 46.4469C25.031 46.2724 25.149 46.1238 25.3055 46.0265C25.4619 45.9291 25.6473 45.889 25.8301 45.913L26.6508 46.0284C27.019 46.0801 27.3082 46.389 27.3301 46.7676L27.3857 47.6605C27.447 48.0778 27.6761 48.4634 28.0107 48.7195L28.3027 48.9322C29.1701 49.4842 29.8794 50.252 30.3611 51.1604C30.8428 52.0688 30.9361 52.8472 30.9064 53.875V59.1875C30.9064 60.25 31.2412 61.2333 31.9054 61.9275L32.2443 62.2648Z" fill="white"/>
<path fill-rule="evenodd" clip-rule="evenodd" d="M26.6888 128.373C26.8411 128.739 27.1854 128.989 27.5807 129.021L32.0256 129.377C32.9631 129.452 33.3433 130.622 32.629 131.234L29.2425 134.135C28.9413 134.393 28.8098 134.798 28.9018 135.183L29.9364 139.521C30.1547 140.436 29.1593 141.159 28.3566 140.669L24.5512 138.344C24.2128 138.138 23.7872 138.138 23.4488 138.344L19.6434 140.669C18.8407 141.159 17.8453 140.436 18.0636 139.521L19.0982 135.183C19.1902 134.798 19.0587 134.393 18.7575 134.135L15.371 131.234C14.6567 130.622 15.0368 129.452 15.9744 129.377L20.4193 129.021C20.8146 128.989 21.1589 128.739 21.3112 128.373L23.0236 124.255C23.3849 123.387 24.6151 123.387 24.9764 124.255L26.6888 128.373ZM23.9597 124.616C23.9582 124.618 23.9531 124.625 23.9469 124.639L22.2345 128.757C21.9382 129.469 21.2683 129.956 20.4992 130.017L16.0544 130.374C16.0384 130.375 16.0308 130.378 16.0286 130.379C16.0262 130.38 16.0246 130.381 16.023 130.382C16.019 130.385 16.0102 130.395 16.0043 130.413C15.9985 130.431 15.9999 130.444 16.0011 130.449C16.0017 130.451 16.0023 130.453 16.0037 130.455C16.0049 130.457 16.0094 130.464 16.0216 130.475L19.4081 133.376C19.994 133.877 20.2499 134.665 20.0709 135.415L19.0363 139.753C19.0326 139.768 19.0329 139.777 19.0331 139.779C19.0333 139.782 19.0338 139.783 19.0345 139.785C19.0365 139.79 19.0431 139.802 19.0584 139.813C19.0737 139.824 19.0867 139.827 19.0919 139.827C19.0939 139.827 19.0957 139.827 19.0983 139.826C19.1006 139.826 19.1085 139.824 19.1221 139.815L22.9275 137.491C23.586 137.089 24.414 137.089 25.0725 137.491L28.8779 139.815C28.8915 139.824 28.8994 139.826 28.9017 139.826L28.9049 139.827L28.9081 139.827C28.9133 139.827 28.9263 139.824 28.9416 139.813C28.9569 139.802 28.9635 139.79 28.9655 139.785C28.9662 139.783 28.9667 139.782 28.9669 139.779C28.9671 139.777 28.9674 139.768 28.9637 139.753L27.9291 135.415C27.7501 134.665 28.006 133.877 28.5919 133.376L31.9784 130.475C31.9906 130.464 31.9951 130.457 31.9963 130.455C31.9977 130.453 31.9983 130.451 31.9989 130.449C32.0001 130.444 32.0015 130.431 31.9957 130.413C31.9898 130.395 31.981 130.385 31.977 130.382C31.9754 130.381 31.9738 130.38 31.9714 130.379C31.9692 130.378 31.9616 130.375 31.9456 130.374L27.5008 130.017C26.7317 129.956 26.0618 129.469 25.7655 128.757L24.0531 124.639C24.0469 124.625 24.0418 124.618 24.0403 124.616C24.0386 124.614 24.0372 124.613 24.0354 124.612C24.031 124.609 24.0189 124.604 24 124.604C23.9811 124.604 23.969 124.609 23.9646 124.612C23.9628 124.613 23.9614 124.614 23.9597 124.616Z" fill="white"/>
<path d="M24 89.5C24 89.2239 23.7761 89 23.5 89C23.2239 89 23 89.2239 23 89.5V94.5C23 94.7761 23.2239 95 23.5 95H27.5C27.7761 95 28 94.7761 28 94.5C28 94.2239 27.7761 94 27.5 94H24V89.5Z" fill="white"/>
<path fill-rule="evenodd" clip-rule="evenodd" d="M24 102C28.4183 102 32 98.4183 32 94C32 89.5817 28.4183 86 24 86C19.5817 86 16 89.5817 16 94C16 98.4183 19.5817 102 24 102ZM24 103C28.9706 103 33 98.9706 33 94C33 89.0294 28.9706 85 24 85C19.0294 85 15 89.0294 15 94C15 98.9706 19.0294 103 24 103Z" fill="white"/>
<path d="M21.1002 163.382L27.0419 162.547C27.7514 162.447 28.2242 162.382 28.5915 162.36C28.9471 162.34 29.1151 162.368 29.2244 162.405C29.5239 162.509 29.7831 162.704 29.9647 162.963C30.031 163.058 30.1044 163.212 30.1825 163.559C30.2633 163.918 30.3305 164.391 30.4302 165.1L31.2652 171.042C31.3649 171.752 31.4306 172.224 31.452 172.592C31.4727 172.947 31.4445 173.115 31.4069 173.224C31.3037 173.524 31.1084 173.783 30.8489 173.965C30.7543 174.031 30.6006 174.105 30.253 174.183C29.945 174.252 29.5533 174.311 29 174.39V175C29 175.14 29 175.273 28.9997 175.4C30.2878 175.218 30.9488 175.116 31.4225 174.784C31.855 174.481 32.1805 174.049 32.3524 173.55C32.5478 172.983 32.4503 172.289 32.2555 170.903L31.4204 164.961C31.2256 163.575 31.1282 162.881 30.7839 162.39C30.4811 161.957 30.0491 161.632 29.5499 161.46C28.9824 161.264 28.2892 161.362 26.9027 161.557L20.9611 162.392C19.5746 162.587 18.8813 162.684 18.3897 163.028C17.9572 163.331 17.6317 163.763 17.4598 164.262C17.3821 164.488 17.3507 164.733 17.3533 165.034C17.6317 165.012 17.9583 165.004 18.3532 165.001C18.3532 164.79 18.3765 164.672 18.4053 164.588C18.5085 164.288 18.7038 164.029 18.9632 163.848C19.0579 163.781 19.2116 163.708 19.5591 163.63C19.9181 163.549 20.3907 163.482 21.1002 163.382Z" fill="white"/>
<path fill-rule="evenodd" clip-rule="evenodd" d="M25 166H19C18.2834 166 17.8062 166.001 17.4394 166.031C17.0844 166.06 16.9219 166.111 16.819 166.164C16.5368 166.307 16.3073 166.537 16.1635 166.819C16.111 166.922 16.0597 167.084 16.0307 167.439C16.0008 167.806 16 168.283 16 169V175C16 175.717 16.0008 176.194 16.0307 176.561C16.0597 176.916 16.111 177.078 16.1635 177.181C16.3073 177.463 16.5368 177.693 16.819 177.837C16.9219 177.889 17.0844 177.94 17.4394 177.969C17.8061 177.999 18.2834 178 19 178H25C25.7166 178 26.1938 177.999 26.5606 177.969C26.9156 177.94 27.0781 177.889 27.181 177.837C27.4632 177.693 27.6927 177.463 27.8365 177.181C27.889 177.078 27.9403 176.916 27.9693 176.561C27.9992 176.194 28 175.717 28 175V169C28 168.283 27.9992 167.806 27.9693 167.439C27.9403 167.084 27.889 166.922 27.8365 166.819C27.6927 166.537 27.4632 166.307 27.181 166.164C27.0781 166.111 26.9156 166.06 26.5606 166.031C26.1938 166.001 25.7166 166 25 166ZM15.2725 166.365C15 166.9 15 167.6 15 169V175C15 176.4 15 177.1 15.2725 177.635C15.5122 178.105 15.8946 178.488 16.365 178.728C16.8998 179 17.5999 179 19 179H25C26.4001 179 27.1002 179 27.635 178.728C28.1054 178.488 28.4878 178.105 28.7275 177.635C29 177.1 29 176.4 29 175V169C29 167.6 29 166.9 28.7275 166.365C28.4878 165.895 28.1054 165.512 27.635 165.273C27.1002 165 26.4001 165 25 165H19C17.5999 165 16.8998 165 16.365 165.273C15.8946 165.512 15.5122 165.895 15.2725 166.365Z" fill="white"/>
<path d="M18 169.5C18 169.224 18.2239 169 18.5 169H24.5C24.7761 169 25 169.224 25 169.5C25 169.776 24.7761 170 24.5 170H18.5C18.2239 170 18 169.776 18 169.5Z" fill="white"/>
<path d="M18 171.5C18 171.224 18.2239 171 18.5 171H21.5C21.7761 171 22 171.224 22 171.5C22 171.776 21.7761 172 21.5 172H18.5C18.2239 172 18 171.776 18 171.5Z" fill="white"/>
<path d="M18.5 173C18.2239 173 18 173.224 18 173.5C18 173.776 18.2239 174 18.5 174H23.5C23.7761 174 24 173.776 24 173.5C24 173.224 23.7761 173 23.5 173H18.5Z" fill="white"/>
<path fill-rule="evenodd" clip-rule="evenodd" d="M27.2847 208L21.9091 211.36V204.64L27.2847 208ZM21.918 212.426L28.1859 208.509C28.5619 208.274 28.5619 207.726 28.1859 207.491L21.918 203.574C21.5184 203.324 21 203.611 21 204.083V211.917C21 212.389 21.5184 212.676 21.918 212.426Z" fill="white"/>
<path fill-rule="evenodd" clip-rule="evenodd" d="M24 217C28.9706 217 33 212.971 33 208C33 203.029 28.9706 199 24 199C19.0294 199 15 203.029 15 208C15 212.971 19.0294 217 24 217ZM24 218C29.5228 218 34 213.523 34 208C34 202.477 29.5228 198 24 198C18.4772 198 14 202.477 14 208C14 213.523 18.4772 218 24 218Z" fill="white"/>
<path d="M26.5566 245.999C26.5566 247.434 26.3472 248.489 25.9282 249.162C25.5129 249.832 24.8701 250.167 24 250.167C23.1191 250.167 22.4728 249.825 22.061 249.141C21.6493 248.457 21.4434 247.413 21.4434 246.009C21.4434 244.566 21.651 243.512 22.0664 242.846C22.4854 242.176 23.1299 241.841 24 241.841C24.8809 241.841 25.5272 242.187 25.939 242.878C26.3507 243.569 26.5566 244.609 26.5566 245.999ZM25.1816 248.437C25.2855 248.172 25.3589 247.837 25.4019 247.433C25.4448 247.028 25.4663 246.55 25.4663 245.999C25.4663 245.451 25.4448 244.974 25.4019 244.57C25.3589 244.165 25.2837 243.829 25.1763 243.56C25.0688 243.288 24.9202 243.082 24.7305 242.942C24.5443 242.799 24.3008 242.728 24 242.728C23.7028 242.728 23.4575 242.799 23.2642 242.942C23.0744 243.082 22.924 243.292 22.813 243.571C22.7056 243.843 22.6322 244.187 22.5928 244.602C22.5534 245.017 22.5337 245.486 22.5337 246.009C22.5337 246.568 22.5498 247.035 22.582 247.411C22.6178 247.787 22.693 248.124 22.8076 248.421C22.9115 248.697 23.0583 248.91 23.248 249.06C23.4414 249.207 23.6921 249.28 24 249.28C24.2972 249.28 24.5407 249.21 24.7305 249.071C24.9238 248.928 25.0742 248.716 25.1816 248.437Z" fill="white"/>
<path fill-rule="evenodd" clip-rule="evenodd" d="M30 237H18C16.3431 237 15 238.343 15 240V252C15 253.657 16.3431 255 18 255H30C31.6569 255 33 253.657 33 252V240C33 238.343 31.6569 237 30 237ZM18 236C15.7909 236 14 237.791 14 240V252C14 254.209 15.7909 256 18 256H30C32.2091 256 34 254.209 34 252V240C34 237.791 32.2091 236 30 236H18Z" fill="white"/>
<path fill-rule="evenodd" clip-rule="evenodd" d="M92.9384 64.0414H89.5619L89.567 47.2112H87.8658C85.243 47.2112 83.849 48.7693 83.849 50.688C83.849 52.8256 84.8532 54.1905 86.9184 55.5812L88.6196 56.7221L83.7148 64.0414H80L84.4986 57.5214C81.9313 55.6993 80.5034 53.8493 80.5034 50.7395C80.5034 47.3709 82.93 44.7002 87.8684 44.7002H92.9384V64.0414ZM120.313 61.4158H121.789V67.11H118.723V64.0195H111.272V67.11H108.206V61.4158H109.238C110.408 59.0773 110.632 54.6528 110.632 51.2301V50.0326H120.313V61.4158ZM103.489 55.5697V50.0326H106.845V64.0195H103.489V58.1863H99.0543V64.0195H95.7345V50.0326H99.0543V55.5697H103.489ZM154.68 64.1972H154.567C150.132 64.1972 147.994 61.6373 147.966 57.1561V56.9629C147.966 52.814 150.181 49.8085 154.419 49.8085H154.533C156.288 49.8085 157.293 50.0609 157.992 50.4781V53.3986C157.349 52.814 156.066 52.4534 154.923 52.4534H154.783C152.607 52.4534 151.407 53.9832 151.407 56.878V57.0737C151.407 59.801 152.39 61.5806 154.763 61.5806H154.902C156.074 61.5806 157.386 61.1351 158 60.6355V63.3345C157.189 63.9191 156.103 64.1972 154.68 64.1972ZM112.222 61.4158H116.965V52.6492H113.477V53.0664C113.477 55.4924 113.198 59.3272 112.222 61.4158ZM126.06 57.8102H134.036V56.4736C134.036 51.6319 131.888 49.8214 128.597 49.8214H128.514C124.441 49.8214 122.6 52.8835 122.6 57.0866V57.4471C122.6 61.8716 124.998 64.2101 129.154 64.2101H129.183C131.359 64.2101 132.949 63.7362 133.897 63.0975V60.3856C132.921 61.0527 131.163 61.5265 129.629 61.5265H129.544C127.004 61.5265 126.089 60.3123 126.06 57.8102ZM126.081 55.4589C126.22 53.4448 127.019 52.3968 128.457 52.3968H128.514C130.15 52.3968 130.657 53.719 130.662 55.4589H126.081ZM144.483 64.0427L140.159 56.8316L144.256 50.0403H147.612L143.687 56.4641L148.252 64.0427H144.483ZM136.269 50.0403H139.576L139.589 64.0195H136.269V50.0403Z" fill="white"/>
<path d="M399 100C399 95.5817 402.582 92 407 92H527C531.418 92 535 95.5817 535 100V166C535 170.418 531.418 174 527 174H407C402.582 174 399 170.418 399 166V100Z" fill="white"/>
<path fill-rule="evenodd" clip-rule="evenodd" d="M485.233 133.302V135.444H475.525C475.67 138.192 476.815 139.538 479.741 139.538C481.71 139.538 483.834 138.898 485.061 138.087V141.368C483.921 142.146 481.986 142.716 479.412 142.716C474.265 142.716 471.346 139.866 471.346 134.045C471.346 128.932 473.695 125.201 478.6 125.201C482.625 125.201 485.233 127.412 485.233 133.302ZM478.514 128.396C476.594 128.396 475.609 129.8 475.516 132.473H481.122V132.127C481.122 130.02 480.518 128.396 478.514 128.396ZM448.148 132.231V125.495H452.207V142.526H448.148V135.409H442.759V142.526H438.734V125.495H442.759V132.231H448.148ZM502.506 142.526H497.929L491.97 134.166V142.526H487.945V125.495H491.97V133.354L497.653 125.495H501.729L496.046 133.354L502.506 142.526ZM514.407 141.679C513.423 142.388 512.11 142.733 510.245 142.733C504.873 142.733 502.265 139.624 502.247 134.045C502.247 128.897 504.925 125.236 510.072 125.236C512.076 125.236 513.561 125.581 514.407 126.047V129.467C513.596 128.949 512.076 128.414 510.521 128.414C507.878 128.414 506.427 130.279 506.427 133.941C506.427 137.396 507.602 139.555 510.486 139.555C512.179 139.555 513.388 139.106 514.407 138.398V141.679ZM468.565 139.348H470.361V146.274H466.63V142.509H457.596V146.274H453.866V139.33H455.126C456.543 136.498 456.819 131.108 456.819 126.946V125.495H468.565V139.348ZM458.857 139.348H464.54V128.69H460.274V129.191C460.274 132.127 459.98 136.774 458.857 139.348Z" fill="black"/>
<path d="M435.351 142.526V119H429.391C423.398 119 420.254 122.075 420.254 126.617C420.254 130.221 421.975 132.38 425.055 134.569L419.701 142.526H424.14L430.1 133.613L428.027 132.231C425.522 130.538 424.296 129.226 424.296 126.376C424.296 123.871 426.058 122.178 429.409 122.178H431.24V142.526H435.351Z" fill="#FC3F1D"/>
<path d="M543 100C543 95.5817 546.582 92 551 92H671C675.418 92 679 95.5817 679 100V166C679 170.418 675.418 174 671 174H551C546.582 174 543 170.418 543 166V100Z" fill="white"/>
<path opacity="0.9" d="M591.254 158.59L594.749 151.045H596.579V161.8H595.154V153.145L591.854 160.15L591.149 160.165H590.519L590.534 160.15L587.279 153.025V161.8H585.944V151.045H587.909L591.254 158.59ZM603.463 160.315C603.373 160.495 603.258 160.685 603.118 160.885C602.978 161.075 602.803 161.25 602.593 161.41C602.383 161.57 602.133 161.7 601.843 161.8C601.563 161.9 601.233 161.95 600.853 161.95C600.153 161.95 599.588 161.755 599.158 161.365C598.728 160.965 598.513 160.395 598.513 159.655C598.513 158.805 598.808 158.18 599.398 157.78C599.998 157.38 600.848 157.18 601.948 157.18H603.403V156.535C603.403 155.995 603.263 155.61 602.983 155.38C602.703 155.15 602.223 155.035 601.543 155.035C601.063 155.035 600.608 155.115 600.178 155.275C599.748 155.425 599.363 155.6 599.023 155.8V154.615C599.303 154.445 599.678 154.28 600.148 154.12C600.628 153.95 601.153 153.865 601.723 153.865C602.703 153.865 603.448 154.07 603.958 154.48C604.468 154.88 604.723 155.505 604.723 156.355V160.54C604.723 160.63 604.723 160.735 604.723 160.855C604.733 160.965 604.738 161.08 604.738 161.2C604.748 161.32 604.758 161.435 604.768 161.545C604.778 161.645 604.788 161.73 604.798 161.8H603.598C603.568 161.66 603.538 161.465 603.508 161.215C603.488 160.955 603.478 160.73 603.478 160.54L603.463 160.315ZM601.138 160.765C601.548 160.765 601.898 160.68 602.188 160.51C602.478 160.34 602.713 160.145 602.893 159.925C603.073 159.695 603.203 159.475 603.283 159.265C603.363 159.045 603.403 158.89 603.403 158.8V158.23H602.083C601.293 158.23 600.718 158.345 600.358 158.575C600.008 158.795 599.833 159.13 599.833 159.58C599.833 159.93 599.938 160.215 600.148 160.435C600.358 160.655 600.688 160.765 601.138 160.765ZM610.714 161.95C610.114 161.95 609.594 161.81 609.154 161.53C608.724 161.25 608.379 160.865 608.119 160.375V164.455H606.799V154.015H607.954L608.089 155.53C608.349 155.02 608.699 154.615 609.139 154.315C609.579 154.015 610.124 153.865 610.774 153.865C611.224 153.865 611.654 153.95 612.064 154.12C612.484 154.28 612.849 154.53 613.159 154.87C613.479 155.2 613.729 155.62 613.909 156.13C614.099 156.63 614.194 157.22 614.194 157.9C614.194 158.59 614.099 159.19 613.909 159.7C613.719 160.2 613.464 160.62 613.144 160.96C612.824 161.29 612.454 161.54 612.034 161.71C611.614 161.87 611.174 161.95 610.714 161.95ZM610.519 160.765C611.209 160.765 611.764 160.53 612.184 160.06C612.614 159.58 612.829 158.86 612.829 157.9C612.829 156.96 612.614 156.25 612.184 155.77C611.764 155.28 611.209 155.035 610.519 155.035C610.179 155.035 609.859 155.095 609.559 155.215C609.269 155.335 609.014 155.515 608.794 155.755C608.584 155.985 608.414 156.28 608.284 156.64C608.164 157 608.104 157.42 608.104 157.9C608.104 158.38 608.164 158.8 608.284 159.16C608.414 159.52 608.584 159.82 608.794 160.06C609.014 160.3 609.269 160.48 609.559 160.6C609.859 160.71 610.179 160.765 610.519 160.765ZM617.803 158.485H617.113V161.8H615.793V154.015H617.113V157.36H617.863L620.593 154.015H622.093L618.898 157.855L622.153 161.8H620.548L617.803 158.485ZM629.444 161.14C629.334 161.22 629.199 161.305 629.039 161.395C628.879 161.485 628.684 161.575 628.454 161.665C628.224 161.745 627.964 161.81 627.674 161.86C627.384 161.92 627.059 161.95 626.699 161.95C625.389 161.95 624.394 161.595 623.714 160.885C623.034 160.175 622.694 159.18 622.694 157.9C622.694 157.27 622.784 156.705 622.964 156.205C623.154 155.705 623.414 155.285 623.744 154.945C624.074 154.595 624.464 154.33 624.914 154.15C625.364 153.96 625.854 153.865 626.384 153.865C626.944 153.865 627.444 153.96 627.884 154.15C628.324 154.34 628.684 154.62 628.964 154.99C629.254 155.36 629.449 155.82 629.549 156.37C629.659 156.91 629.659 157.54 629.549 158.26H624.059C624.109 159.1 624.359 159.73 624.809 160.15C625.259 160.56 625.929 160.765 626.819 160.765C627.419 160.765 627.934 160.68 628.364 160.51C628.794 160.34 629.154 160.155 629.444 159.955V161.14ZM626.354 155.035C625.784 155.035 625.294 155.21 624.884 155.56C624.474 155.91 624.214 156.44 624.104 157.15H628.289C628.329 156.43 628.164 155.9 627.794 155.56C627.424 155.21 626.944 155.035 626.354 155.035ZM634.382 155.14V161.8H633.062V155.14H630.617V154.015H636.872V155.14H634.382Z" fill="black"/>
<g clip-path="url(#clip3_12_8972)">
<g clip-path="url(#clip4_12_8972)">
<g clip-path="url(#clip5_12_8972)">
<mask id="mask2_12_8972" style="mask-type:alpha" maskUnits="userSpaceOnUse" x="594" y="108" width="34" height="34">
<circle cx="611" cy="124.8" r="16.4" fill="white"/>
</mask>
<g mask="url(#mask2_12_8972)">
<rect width="32.8" height="32.8" transform="translate(594.6 108.4)" fill="url(#paint3_linear_12_8972)"/>
<rect width="32.8" height="32.8" transform="translate(594.6 108.4)" fill="#FFCC00"/>
<path d="M594.6 136.808L602.429 127.463L600.512 134.781L606.453 136.933L615.28 124.35L613.346 131.546L618.159 134.331L627.4 125.083V117.473L620.846 124.038L622.301 115.774L616.242 113.563L607.529 125.995L608.396 120.353L603.649 117.615L594.6 128.406V136.808Z" fill="black"/>
</g>
</g>
</g>
</g>
<path d="M687 100C687 95.5817 690.582 92 695 92H815C819.418 92 823 95.5817 823 100V166C823 170.418 819.418 174 815 174H695C690.582 174 687 170.418 687 166V100Z" fill="white"/>
<path opacity="0.9" d="M736.983 157.195H735.843V161.8H734.433V151.045H735.843V155.92H736.893L740.733 151.045H742.323L738.078 156.415L742.488 161.8H740.733L736.983 157.195ZM748.203 160.315C748.113 160.495 747.998 160.685 747.858 160.885C747.718 161.075 747.543 161.25 747.333 161.41C747.123 161.57 746.873 161.7 746.583 161.8C746.303 161.9 745.973 161.95 745.593 161.95C744.893 161.95 744.328 161.755 743.898 161.365C743.468 160.965 743.253 160.395 743.253 159.655C743.253 158.805 743.548 158.18 744.138 157.78C744.738 157.38 745.588 157.18 746.688 157.18H748.143V156.535C748.143 155.995 748.003 155.61 747.723 155.38C747.443 155.15 746.963 155.035 746.283 155.035C745.803 155.035 745.348 155.115 744.918 155.275C744.488 155.425 744.103 155.6 743.763 155.8V154.615C744.043 154.445 744.418 154.28 744.888 154.12C745.368 153.95 745.893 153.865 746.463 153.865C747.443 153.865 748.188 154.07 748.698 154.48C749.208 154.88 749.463 155.505 749.463 156.355V160.54C749.463 160.63 749.463 160.735 749.463 160.855C749.473 160.965 749.478 161.08 749.478 161.2C749.488 161.32 749.498 161.435 749.508 161.545C749.518 161.645 749.528 161.73 749.538 161.8H748.338C748.308 161.66 748.278 161.465 748.248 161.215C748.228 160.955 748.218 160.73 748.218 160.54L748.203 160.315ZM745.878 160.765C746.288 160.765 746.638 160.68 746.928 160.51C747.218 160.34 747.453 160.145 747.633 159.925C747.813 159.695 747.943 159.475 748.023 159.265C748.103 159.045 748.143 158.89 748.143 158.8V158.23H746.823C746.033 158.23 745.458 158.345 745.098 158.575C744.748 158.795 744.573 159.13 744.573 159.58C744.573 159.93 744.678 160.215 744.888 160.435C745.098 160.655 745.428 160.765 745.878 160.765ZM755.454 161.95C754.854 161.95 754.334 161.81 753.894 161.53C753.464 161.25 753.119 160.865 752.859 160.375V164.455H751.539V154.015H752.694L752.829 155.53C753.089 155.02 753.439 154.615 753.879 154.315C754.319 154.015 754.864 153.865 755.514 153.865C755.964 153.865 756.394 153.95 756.804 154.12C757.224 154.28 757.589 154.53 757.899 154.87C758.219 155.2 758.469 155.62 758.649 156.13C758.839 156.63 758.934 157.22 758.934 157.9C758.934 158.59 758.839 159.19 758.649 159.7C758.459 160.2 758.204 160.62 757.884 160.96C757.564 161.29 757.194 161.54 756.774 161.71C756.354 161.87 755.914 161.95 755.454 161.95ZM755.259 160.765C755.949 160.765 756.504 160.53 756.924 160.06C757.354 159.58 757.569 158.86 757.569 157.9C757.569 156.96 757.354 156.25 756.924 155.77C756.504 155.28 755.949 155.035 755.259 155.035C754.919 155.035 754.599 155.095 754.299 155.215C754.009 155.335 753.754 155.515 753.534 155.755C753.324 155.985 753.154 156.28 753.024 156.64C752.904 157 752.844 157.42 752.844 157.9C752.844 158.38 752.904 158.8 753.024 159.16C753.154 159.52 753.324 159.82 753.534 160.06C753.754 160.3 754.009 160.48 754.299 160.6C754.599 160.71 754.919 160.765 755.259 160.765ZM763.521 155.14V161.8H762.201V155.14H759.756V154.015H766.011V155.14H763.521ZM773.295 159.205C773.295 159.655 773.215 160.045 773.055 160.375C772.895 160.705 772.67 160.975 772.38 161.185C772.09 161.395 771.745 161.55 771.345 161.65C770.945 161.75 770.51 161.8 770.04 161.8H767.535V154.015H768.855V156.73H770.13C771.12 156.73 771.895 156.925 772.455 157.315C773.015 157.705 773.295 158.335 773.295 159.205ZM775.74 161.8H774.42V154.015H775.74V161.8ZM768.855 157.855V160.675H770.04C770.61 160.675 771.07 160.57 771.42 160.36C771.78 160.14 771.96 159.78 771.96 159.28C771.96 158.77 771.8 158.405 771.48 158.185C771.16 157.965 770.71 157.855 770.13 157.855H768.855Z" fill="black"/>
<path d="M754.999 108.4C747.708 108.4 741.799 114.274 741.799 121.52C741.799 125.142 743.275 128.421 745.663 130.795C748.052 133.171 753.679 136.608 754.009 140.216C754.058 140.757 754.452 141.2 754.999 141.2C755.545 141.2 755.939 140.757 755.989 140.216C756.319 136.608 761.946 133.171 764.335 130.795C766.722 128.421 768.199 125.142 768.199 121.52C768.199 114.274 762.289 108.4 754.999 108.4Z" fill="#FF4433"/>
<path d="M755 126C757.43 126 759.4 124.03 759.4 121.6C759.4 119.17 757.43 117.2 755 117.2C752.57 117.2 750.6 119.17 750.6 121.6C750.6 124.03 752.57 126 755 126Z" fill="white"/>
<path d="M831 100C831 95.5817 834.582 92 839 92H959C963.418 92 967 95.5817 967 100V166C967 170.418 963.418 174 959 174H839C834.582 174 831 170.418 831 166V100Z" fill="white"/>
<path opacity="0.9" d="M878.287 151.045H881.932C883.112 151.045 884.007 151.245 884.617 151.645C885.237 152.045 885.547 152.72 885.547 153.67C885.547 154.06 885.492 154.4 885.382 154.69C885.282 154.97 885.137 155.215 884.947 155.425C884.767 155.625 884.542 155.79 884.272 155.92C884.012 156.05 883.722 156.15 883.402 156.22C884.242 156.32 884.872 156.565 885.292 156.955C885.722 157.335 885.937 157.915 885.937 158.695C885.937 159.255 885.832 159.735 885.622 160.135C885.422 160.525 885.142 160.845 884.782 161.095C884.422 161.335 883.997 161.515 883.507 161.635C883.017 161.745 882.482 161.8 881.902 161.8H878.287V151.045ZM879.697 152.335V155.635H881.827C882.167 155.635 882.477 155.6 882.757 155.53C883.037 155.45 883.277 155.335 883.477 155.185C883.677 155.025 883.832 154.83 883.942 154.6C884.062 154.36 884.122 154.075 884.122 153.745C884.122 153.195 883.932 152.825 883.552 152.635C883.172 152.435 882.632 152.335 881.932 152.335H879.697ZM879.697 156.91V160.525H881.902C882.282 160.525 882.627 160.495 882.937 160.435C883.247 160.375 883.512 160.275 883.732 160.135C883.962 159.995 884.137 159.81 884.257 159.58C884.387 159.35 884.452 159.065 884.452 158.725C884.452 158.045 884.232 157.575 883.792 157.315C883.362 157.045 882.677 156.91 881.737 156.91H879.697ZM889.095 160L893.25 154.015H894.585V161.8H893.265V155.83L889.125 161.8H887.775V154.015H889.095V160ZM896.32 160.675C896.6 160.505 896.82 160.24 896.98 159.88C897.14 159.52 897.265 159.065 897.355 158.515C897.445 157.965 897.505 157.315 897.535 156.565C897.575 155.815 897.61 154.965 897.64 154.015H902.995V160.675H904.165V164.02H903.01L902.845 161.8H897.055L896.92 164.02H895.735V160.675H896.32ZM901.675 160.675V155.14H898.825C898.775 156.61 898.68 157.79 898.54 158.68C898.41 159.56 898.18 160.225 897.85 160.675H901.675ZM911.592 161.14C911.482 161.22 911.347 161.305 911.187 161.395C911.027 161.485 910.832 161.575 910.602 161.665C910.372 161.745 910.112 161.81 909.822 161.86C909.532 161.92 909.207 161.95 908.847 161.95C907.537 161.95 906.542 161.595 905.862 160.885C905.182 160.175 904.842 159.18 904.842 157.9C904.842 157.27 904.932 156.705 905.112 156.205C905.302 155.705 905.562 155.285 905.892 154.945C906.222 154.595 906.612 154.33 907.062 154.15C907.512 153.96 908.002 153.865 908.532 153.865C909.092 153.865 909.592 153.96 910.032 154.15C910.472 154.34 910.832 154.62 911.112 154.99C911.402 155.36 911.597 155.82 911.697 156.37C911.807 156.91 911.807 157.54 911.697 158.26H906.207C906.257 159.1 906.507 159.73 906.957 160.15C907.407 160.56 908.077 160.765 908.967 160.765C909.567 160.765 910.082 160.68 910.512 160.51C910.942 160.34 911.302 160.155 911.592 159.955V161.14ZM908.502 155.035C907.932 155.035 907.442 155.21 907.032 155.56C906.622 155.91 906.362 156.44 906.252 157.15H910.437C910.477 156.43 910.312 155.9 909.942 155.56C909.572 155.21 909.092 155.035 908.502 155.035ZM916.663 161.95C916.133 161.95 915.638 161.86 915.178 161.68C914.718 161.5 914.318 161.24 913.978 160.9C913.648 160.55 913.388 160.125 913.198 159.625C913.008 159.125 912.913 158.55 912.913 157.9C912.913 157.26 913.008 156.69 913.198 156.19C913.388 155.68 913.648 155.255 913.978 154.915C914.318 154.575 914.718 154.315 915.178 154.135C915.638 153.955 916.133 153.865 916.663 153.865C917.203 153.865 917.703 153.955 918.163 154.135C918.623 154.315 919.018 154.575 919.348 154.915C919.688 155.255 919.953 155.68 920.143 156.19C920.343 156.69 920.443 157.26 920.443 157.9C920.443 158.55 920.343 159.125 920.143 159.625C919.953 160.125 919.688 160.55 919.348 160.9C919.018 161.24 918.623 161.5 918.163 161.68C917.703 161.86 917.203 161.95 916.663 161.95ZM916.663 160.765C917.013 160.765 917.333 160.71 917.623 160.6C917.923 160.48 918.183 160.305 918.403 160.075C918.623 159.835 918.793 159.535 918.913 159.175C919.033 158.815 919.093 158.39 919.093 157.9C919.093 157.41 919.033 156.985 918.913 156.625C918.793 156.265 918.623 155.97 918.403 155.74C918.183 155.5 917.923 155.325 917.623 155.215C917.333 155.095 917.013 155.035 916.663 155.035C916.313 155.035 915.993 155.095 915.703 155.215C915.413 155.325 915.158 155.5 914.938 155.74C914.728 155.97 914.563 156.265 914.443 156.625C914.323 156.985 914.263 157.41 914.263 157.9C914.263 158.39 914.323 158.815 914.443 159.175C914.563 159.535 914.728 159.835 914.938 160.075C915.158 160.305 915.413 160.48 915.703 160.6C915.993 160.71 916.313 160.765 916.663 160.765Z" fill="black"/>
<path fill-rule="evenodd" clip-rule="evenodd" d="M915.4 124.8C915.4 126.975 914.983 129.067 914.151 131.076C913.319 133.085 912.134 134.859 910.596 136.397C909.058 137.934 907.285 139.12 905.276 139.952C903.266 140.784 901.174 141.2 899 141.2C896.825 141.2 894.733 140.784 892.724 139.952C890.714 139.12 888.941 137.934 887.403 136.397C885.865 134.859 884.68 133.085 883.848 131.076C883.016 129.067 882.6 126.975 882.6 124.8C882.6 122.625 883.016 120.533 883.848 118.524C884.68 116.515 885.865 114.741 887.403 113.204C888.941 111.666 890.714 110.481 892.724 109.649C894.733 108.816 896.825 108.4 899 108.4C901.174 108.4 903.266 108.816 905.276 109.649C907.285 110.481 909.058 111.666 910.596 113.204C912.134 114.741 913.319 116.515 914.151 118.524C914.983 120.533 915.4 122.625 915.4 124.8Z" fill="#FFCC00"/>
<path fill-rule="evenodd" clip-rule="evenodd" d="M915.4 124.8C915.4 126.975 914.983 129.067 914.151 131.076C913.319 133.085 912.134 134.859 910.596 136.397C909.058 137.934 907.285 139.12 905.276 139.952C903.266 140.784 901.174 141.2 899 141.2C896.825 141.2 894.733 140.784 892.724 139.952C890.714 139.12 888.941 137.934 887.403 136.397C885.865 134.859 884.68 133.085 883.848 131.076C883.016 129.067 882.6 126.975 882.6 124.8C882.6 122.625 883.016 120.533 883.848 118.524C884.68 116.515 885.865 114.741 887.403 113.204C888.941 111.666 890.714 110.481 892.724 109.649C894.733 108.816 896.825 108.4 899 108.4C901.174 108.4 903.266 108.816 905.276 109.649C907.285 110.481 909.058 111.666 910.596 113.204C912.134 114.741 913.319 116.515 914.151 118.524C914.983 120.533 915.4 122.625 915.4 124.8Z" fill="url(#paint4_linear_12_8972)" fill-opacity="0.4"/>
<path fill-rule="evenodd" clip-rule="evenodd" d="M893.533 116.6V133L908.293 124.8L893.533 116.6Z" fill="black"/>
<path d="M399 190C399 185.582 402.582 182 407 182H527C531.418 182 535 185.582 535 190V256C535 260.418 531.418 264 527 264H407C402.582 264 399 260.418 399 256V190Z" fill="#5181B8"/>
<path d="M466.456 237.506H469.446C469.446 237.506 470.348 237.409 470.813 236.919C471.237 236.47 471.223 235.625 471.223 235.625C471.223 235.625 471.165 231.671 473.026 231.089C474.861 230.515 477.217 234.909 479.71 236.6C481.598 237.879 483.034 237.599 483.034 237.599L489.717 237.506C489.717 237.506 493.211 237.295 491.554 234.587C491.419 234.366 490.589 232.583 486.588 228.923C482.402 225.091 482.962 225.711 488.007 219.084C491.078 215.04 492.306 212.582 491.923 211.528C491.557 210.522 489.297 210.788 489.297 210.788L481.779 210.833C481.445 210.794 481.108 210.853 480.808 211.002C480.404 211.241 480.144 211.798 480.144 211.798C480.144 211.798 478.953 214.92 477.367 217.577C474.026 223.183 472.68 223.479 472.133 223.13C470.86 222.319 471.177 219.871 471.177 218.133C471.177 212.701 472.014 210.436 469.55 209.851C468.733 209.656 468.132 209.527 466.041 209.506C463.359 209.479 461.088 209.514 459.803 210.135C458.947 210.549 458.284 211.468 458.689 211.521C459.186 211.586 460.312 211.82 460.908 212.621C461.679 213.655 461.651 215.976 461.651 215.976C461.651 215.976 462.095 222.37 460.618 223.165C459.604 223.71 458.214 222.597 455.229 217.513C454.216 215.743 453.319 213.911 452.545 212.028C452.407 211.709 452.195 211.426 451.925 211.203C451.575 210.975 451.183 210.818 450.77 210.743L443.631 210.79C443.631 210.79 442.558 210.818 442.163 211.278C441.812 211.688 442.136 212.533 442.136 212.533C442.136 212.533 447.714 225.434 454.048 231.933C459.856 237.899 466.456 237.506 466.456 237.506Z" fill="white"/>
<path d="M543 190C543 185.582 546.582 182 551 182H671C675.418 182 679 185.582 679 190V256C679 260.418 675.418 264 671 264H551C546.582 264 543 260.418 543 256V190Z" fill="white"/>
<path opacity="0.9" d="M591.276 241.045H599.361V251.8H597.936V242.335H592.686V251.8H591.276V241.045ZM604.882 251.95C604.352 251.95 603.857 251.86 603.397 251.68C602.937 251.5 602.537 251.24 602.197 250.9C601.867 250.55 601.607 250.125 601.417 249.625C601.227 249.125 601.132 248.55 601.132 247.9C601.132 247.26 601.227 246.69 601.417 246.19C601.607 245.68 601.867 245.255 602.197 244.915C602.537 244.575 602.937 244.315 603.397 244.135C603.857 243.955 604.352 243.865 604.882 243.865C605.422 243.865 605.922 243.955 606.382 244.135C606.842 244.315 607.237 244.575 607.567 244.915C607.907 245.255 608.172 245.68 608.362 246.19C608.562 246.69 608.662 247.26 608.662 247.9C608.662 248.55 608.562 249.125 608.362 249.625C608.172 250.125 607.907 250.55 607.567 250.9C607.237 251.24 606.842 251.5 606.382 251.68C605.922 251.86 605.422 251.95 604.882 251.95ZM604.882 250.765C605.232 250.765 605.552 250.71 605.842 250.6C606.142 250.48 606.402 250.305 606.622 250.075C606.842 249.835 607.012 249.535 607.132 249.175C607.252 248.815 607.312 248.39 607.312 247.9C607.312 247.41 607.252 246.985 607.132 246.625C607.012 246.265 606.842 245.97 606.622 245.74C606.402 245.5 606.142 245.325 605.842 245.215C605.552 245.095 605.232 245.035 604.882 245.035C604.532 245.035 604.212 245.095 603.922 245.215C603.632 245.325 603.377 245.5 603.157 245.74C602.947 245.97 602.782 246.265 602.662 246.625C602.542 246.985 602.482 247.41 602.482 247.9C602.482 248.39 602.542 248.815 602.662 249.175C602.782 249.535 602.947 249.835 603.157 250.075C603.377 250.305 603.632 250.48 603.922 250.6C604.212 250.71 604.532 250.765 604.882 250.765ZM616.081 251.8H614.761V248.38C614.491 248.59 614.176 248.755 613.816 248.875C613.466 248.985 613.066 249.04 612.616 249.04C611.736 249.04 611.061 248.825 610.591 248.395C610.131 247.955 609.901 247.255 609.901 246.295V244.015H611.236V246.31C611.236 246.92 611.376 247.345 611.656 247.585C611.936 247.825 612.331 247.945 612.841 247.945C613.191 247.945 613.531 247.895 613.861 247.795C614.191 247.695 614.491 247.54 614.761 247.33V244.015H616.081V251.8ZM621.374 245.14V251.8H620.054V245.14H617.609V244.015H623.864V245.14H621.374ZM629.728 250.315C629.638 250.495 629.523 250.685 629.383 250.885C629.243 251.075 629.068 251.25 628.858 251.41C628.648 251.57 628.398 251.7 628.108 251.8C627.828 251.9 627.498 251.95 627.118 251.95C626.418 251.95 625.853 251.755 625.423 251.365C624.993 250.965 624.778 250.395 624.778 249.655C624.778 248.805 625.073 248.18 625.663 247.78C626.263 247.38 627.113 247.18 628.213 247.18H629.668V246.535C629.668 245.995 629.528 245.61 629.248 245.38C628.968 245.15 628.488 245.035 627.808 245.035C627.328 245.035 626.873 245.115 626.443 245.275C626.013 245.425 625.628 245.6 625.288 245.8V244.615C625.568 244.445 625.943 244.28 626.413 244.12C626.893 243.95 627.418 243.865 627.988 243.865C628.968 243.865 629.713 244.07 630.223 244.48C630.733 244.88 630.988 245.505 630.988 246.355V250.54C630.988 250.63 630.988 250.735 630.988 250.855C630.998 250.965 631.003 251.08 631.003 251.2C631.013 251.32 631.023 251.435 631.033 251.545C631.043 251.645 631.053 251.73 631.063 251.8H629.863C629.833 251.66 629.803 251.465 629.773 251.215C629.753 250.955 629.743 250.73 629.743 250.54L629.728 250.315ZM627.403 250.765C627.813 250.765 628.163 250.68 628.453 250.51C628.743 250.34 628.978 250.145 629.158 249.925C629.338 249.695 629.468 249.475 629.548 249.265C629.628 249.045 629.668 248.89 629.668 248.8V248.23H628.348C627.558 248.23 626.983 248.345 626.623 248.575C626.273 248.795 626.098 249.13 626.098 249.58C626.098 249.93 626.203 250.215 626.413 250.435C626.623 250.655 626.953 250.765 627.403 250.765Z" fill="black"/>
<mask id="mask3_12_8972" style="mask-type:alpha" maskUnits="userSpaceOnUse" x="595" y="199" width="32" height="32">
<path d="M595.283 213.228C595.283 207.335 595.283 204.389 596.784 202.323C597.269 201.656 597.855 201.069 598.523 200.584C600.588 199.083 603.535 199.083 609.428 199.083H612.572C618.465 199.083 621.412 199.083 623.477 200.584C624.144 201.069 624.731 201.656 625.216 202.323C626.717 204.389 626.717 207.335 626.717 213.228V216.372C626.717 222.265 626.717 225.212 625.216 227.278C624.731 227.945 624.144 228.531 623.477 229.016C621.412 230.517 618.465 230.517 612.572 230.517H609.428C603.535 230.517 600.588 230.517 598.523 229.016C597.855 228.531 597.269 227.945 596.784 227.278C595.283 225.212 595.283 222.265 595.283 216.372V213.228Z" fill="#C4C4C4"/>
</mask>
<g mask="url(#mask3_12_8972)">
<rect width="31.4333" height="31.4333" transform="translate(595.283 199.083)" fill="#F9DB60"/>
<g clip-path="url(#clip6_12_8972)">
<path d="M587.424 200.066L610.999 189.752L634.574 200.066L614.072 217.151C612.292 218.634 609.706 218.634 607.926 217.151L587.424 200.066Z" fill="url(#paint5_linear_12_8972)"/>
</g>
</g>
<path d="M687 190C687 185.582 690.582 182 695 182H815C819.418 182 823 185.582 823 190V256C823 260.418 819.418 264 815 264H695C690.582 264 687 260.418 687 256V190Z" fill="white"/>
<g clip-path="url(#clip7_12_8972)">
<path d="M771.616 216.916H762.714C762.615 216.916 762.566 216.965 762.566 217.063C762.318 221.031 761.577 225.342 760.489 228.821V228.968C760.538 229.017 760.587 229.017 760.637 229.017H763.703C763.753 229.017 763.851 228.968 763.851 228.919C764.692 226.224 765.385 222.697 765.632 219.708H768.55V228.87C768.55 228.968 768.599 229.017 768.698 229.017H771.616C771.715 229.017 771.764 228.968 771.764 228.87V217.112C771.764 217.014 771.715 216.916 771.616 216.916V216.916ZM809.251 216.916H806.333C806.234 216.916 806.185 216.965 806.185 217.063V226.175C805.542 226.371 804.899 226.42 804.207 226.42C802.278 226.42 801.833 225.832 801.833 223.285V217.112C801.833 217.014 801.783 216.965 801.685 216.965H798.767C798.668 216.965 798.618 217.014 798.618 217.112V223.677C798.618 227.792 800.003 229.409 803.613 229.409C805.641 229.409 807.965 228.87 809.301 228.38C809.35 228.38 809.4 228.282 809.4 228.233V217.112C809.4 217.014 809.35 216.916 809.251 216.916V216.916ZM747.68 216.965H744.712C744.613 216.965 744.564 217.014 744.564 217.063C744.119 218.875 743.179 221.913 741.893 225.097L738.926 217.014C738.926 216.965 738.827 216.916 738.778 216.916H735.81C735.761 216.916 735.712 216.965 735.662 216.965C735.613 217.014 735.613 217.063 735.662 217.112L740.113 229.164C739.668 230.095 739.223 230.878 738.827 231.613C738.53 232.152 738.234 232.691 737.937 233.279C737.888 233.328 737.937 233.377 737.937 233.426C737.986 233.475 738.036 233.524 738.085 233.524H741.3C741.349 233.524 741.399 233.475 741.448 233.426C741.992 232.397 742.685 230.927 743.328 229.458C745.207 225.048 746.74 220.933 747.877 217.161C747.877 217.112 747.877 217.063 747.828 217.014C747.779 216.965 747.729 216.965 747.68 216.965V216.965ZM758.263 226.224C758.263 226.175 758.214 226.126 758.164 226.126H758.016C757.323 226.371 755.988 226.616 755.048 226.616C753.021 226.616 752.081 226.077 752.081 222.991C752.081 220.541 752.378 219.365 755.048 219.365C755.79 219.365 756.532 219.463 757.422 219.757C757.521 219.757 757.571 219.757 757.62 219.659C757.966 219.022 758.362 218.288 758.807 217.308V217.161C758.807 217.112 758.758 217.063 758.708 217.063C757.521 216.671 756.087 216.475 754.851 216.475C750.598 216.475 748.718 218.435 748.718 222.893C748.718 227.4 750.598 229.409 754.851 229.409C755.889 229.409 758.016 229.164 759.005 228.772C759.104 228.723 759.104 228.674 759.104 228.576L758.263 226.224V226.224ZM785.908 216.965H782.941C782.892 216.965 782.793 217.014 782.793 217.063C782.348 218.875 781.408 221.913 780.122 225.097L777.155 217.014C777.155 216.965 777.056 216.916 777.006 216.916H774.039C773.99 216.916 773.94 216.965 773.891 216.965C773.841 217.014 773.841 217.063 773.891 217.112L778.342 229.164C777.897 230.095 777.452 230.829 777.056 231.613C776.759 232.152 776.462 232.691 776.166 233.279C776.116 233.328 776.166 233.377 776.166 233.426C776.215 233.475 776.265 233.524 776.314 233.524H779.529C779.578 233.524 779.628 233.475 779.677 233.426C780.221 232.397 780.913 230.927 781.556 229.458C783.436 225.048 784.969 220.933 786.057 217.161C786.057 217.112 786.057 217.063 786.007 217.014C786.007 216.965 785.958 216.965 785.908 216.965V216.965ZM796.788 216.916H788.183C788.084 216.916 788.035 216.965 788.035 217.063V228.87C788.035 228.968 788.084 229.017 788.183 229.017H791.101C791.2 229.017 791.25 228.968 791.25 228.87V219.757H795.75C795.799 219.757 795.898 219.708 795.898 219.659C796.244 218.875 796.591 217.994 796.937 217.161V217.014C796.887 216.965 796.838 216.916 796.788 216.916Z" fill="#EE3F58"/>
<path d="M716.079 226.714C714.15 226.714 713.557 226.175 713.557 222.991C713.557 219.561 714.2 219.267 716.079 219.267C717.958 219.267 718.651 219.561 718.651 222.991C718.651 226.224 718.008 226.714 716.079 226.714V226.714ZM716.079 216.573C711.875 216.573 710.243 218.337 710.243 222.942C710.243 227.596 711.875 229.409 716.079 229.409C720.283 229.409 721.964 227.596 721.964 222.942C721.964 218.386 720.283 216.573 716.079 216.573V216.573ZM733.537 226.224C733.537 226.175 733.487 226.126 733.438 226.126H733.289C732.597 226.371 731.262 226.616 730.322 226.616C728.294 226.616 727.355 226.077 727.355 222.991C727.355 220.541 727.652 219.365 730.322 219.365C731.064 219.365 731.806 219.463 732.696 219.757C732.745 219.757 732.844 219.757 732.894 219.659C733.24 219.023 733.636 218.288 734.081 217.308V217.161C734.081 217.112 734.031 217.063 733.982 217.063C732.844 216.72 731.41 216.524 730.174 216.524C725.921 216.524 724.041 218.484 724.041 222.942C724.041 227.449 725.921 229.458 730.174 229.458C731.212 229.458 733.339 229.213 734.328 228.821C734.427 228.772 734.427 228.723 734.427 228.625L733.537 226.224V226.224ZM709.353 216.916H700.748C700.649 216.916 700.6 217.014 700.6 217.112V228.919C700.6 229.017 700.649 229.066 700.748 229.066H703.666C703.765 229.066 703.814 229.017 703.814 228.919V219.757H708.315C708.364 219.757 708.414 219.708 708.463 219.659C708.809 218.876 709.155 217.994 709.502 217.161V217.014C709.452 216.965 709.403 216.916 709.353 216.916Z" fill="#0065B1"/>
</g>
<rect x="831" y="182" width="136" height="82" rx="8" fill="white" fill-opacity="0.4"/>
<rect x="839" y="190" width="57" height="30" rx="3" fill="white"/>
<g clip-path="url(#clip8_12_8972)">
<path d="M859.5 197H875.5V213H859.5V197Z" fill="url(#paint6_linear_12_8972)"/>
<path d="M859.5 209.188C862.512 210.035 876.394 203.329 875.349 201.155C874.902 200.233 872.996 199.668 870.554 199.828C870.059 199.81 869.571 199.71 869.109 199.532L868.827 199.438C867.585 199.047 866.051 199.07 864.639 199.729C863.503 200.262 862.573 201.151 861.989 202.261C861.886 202.459 861.792 202.661 861.693 202.863C861.429 203.409 861.171 203.955 860.827 204.332C860.322 204.841 859.877 205.406 859.5 206.016V209.188Z" fill="#012B5B"/>
<path d="M875.5 201.282C874.672 199.833 870.314 200.129 865.844 202.224C862.794 203.649 860.479 205.546 859.5 207.104V209.513C860.888 210.609 865.006 210.628 869.029 208.741C872.488 207.118 874.888 204.553 875.5 202.755V201.287V201.282Z" fill="#1884FF"/>
<path d="M875.5 201.282C874.672 199.833 870.314 200.129 865.844 202.224C862.794 203.649 860.479 205.546 859.5 207.104V209.513C860.888 210.609 865.006 210.628 869.029 208.741C872.488 207.118 874.888 204.553 875.5 202.755V201.287V201.282Z" fill="url(#paint7_radial_12_8972)"/>
<path fill-rule="evenodd" clip-rule="evenodd" d="M868.911 208.059C871.062 207.052 872.516 205.654 872.168 204.929C871.82 204.205 869.801 204.435 867.655 205.442C865.509 206.445 864.055 207.842 864.403 208.567C864.751 209.292 866.77 209.061 868.916 208.059H868.911Z" fill="white"/>
</g>
<rect x="838.5" y="189.5" width="58" height="31" rx="3.5" stroke="black" stroke-opacity="0.06"/>
<rect x="902" y="190" width="57" height="30" rx="3" fill="white"/>
<mask id="mask4_12_8972" style="mask-type:alpha" maskUnits="userSpaceOnUse" x="922" y="197" width="17" height="16">
<path d="M922.834 204.233C922.834 201.359 922.834 199.921 923.566 198.914C923.803 198.588 924.089 198.302 924.414 198.066C925.422 197.333 926.859 197.333 929.734 197.333H931.267C934.142 197.333 935.58 197.333 936.587 198.066C936.913 198.302 937.199 198.588 937.435 198.914C938.167 199.921 938.167 201.359 938.167 204.233V205.767C938.167 208.642 938.167 210.079 937.435 211.087C937.199 211.412 936.913 211.698 936.587 211.935C935.58 212.667 934.142 212.667 931.267 212.667H929.734C926.859 212.667 925.422 212.667 924.414 211.935C924.089 211.698 923.803 211.412 923.566 211.087C922.834 210.079 922.834 208.642 922.834 205.767V204.233Z" fill="#C4C4C4"/>
</mask>
<g mask="url(#mask4_12_8972)">
<rect x="922.834" y="197.333" width="15.3333" height="15.3333" fill="#EDEDED"/>
<path d="M938.167 197.333H922.834V205H938.167V197.333Z" fill="#FFCC00"/>
<path d="M938.167 197.333H922.834V205H938.167V197.333Z" fill="url(#paint8_linear_12_8972)" fill-opacity="0.4"/>
<path d="M938.169 205H930.502V212.666H938.169V205Z" fill="black"/>
</g>
<rect x="901.5" y="189.5" width="58" height="31" rx="3.5" stroke="black" stroke-opacity="0.06"/>
<rect x="839" y="226" width="57" height="30" rx="3" fill="white"/>
<path d="M869.965 233.332H865.032C862.16 233.332 859.832 235.66 859.832 238.532V243.465C859.832 246.337 862.16 248.665 865.032 248.665H869.965C872.837 248.665 875.165 246.337 875.165 243.465V238.532C875.165 235.66 872.837 233.332 869.965 233.332Z" fill="#FFCC00"/>
<path d="M869.412 236.686H870.151L871.189 233.332H870.448L869.412 236.686Z" fill="#292929"/>
<path d="M868.215 233.332L867.178 236.686H867.917L868.955 233.332H868.215Z" fill="#292929"/>
<path d="M863.831 243.621C863.623 243.561 863.402 243.56 863.193 243.617C862.826 243.701 862.555 244.185 862.555 244.885C862.555 245.585 862.772 245.967 863.066 246.136C863.288 246.21 863.528 246.216 863.753 246.153C864.009 246.088 864.392 245.585 864.392 244.885C864.392 244.185 864.178 243.726 863.831 243.621Z" fill="#292929"/>
<path d="M870.671 243.621C870.466 243.561 870.249 243.56 870.044 243.617C869.683 243.701 869.416 244.185 869.416 244.885C869.416 245.585 869.63 245.967 869.919 246.136C870.137 246.21 870.373 246.216 870.595 246.153C870.846 246.088 871.222 245.585 871.222 244.885C871.222 244.185 871.012 243.726 870.671 243.621Z" fill="#292929"/>
<path d="M870.667 236.273C870.67 236.273 865.892 236.273 865.892 236.273C864.744 236.273 864.345 237.559 864.345 237.559C864.345 237.559 862.98 241.98 862.478 243.592C861.975 245.205 863.743 245.843 864.19 245.843C864.807 245.843 869.169 245.842 869.179 245.842C869.635 245.842 869.93 245.505 869.93 244.823C869.93 244.023 870.355 243.618 870.656 243.631C870.76 243.648 870.854 243.703 870.921 243.784C871.368 242.33 872.483 238.789 872.525 238.622C873.049 237.123 871.498 236.273 870.667 236.273Z" fill="url(#paint9_linear_12_8972)"/>
<path d="M871.144 236.734C871.075 236.731 871.008 236.75 870.952 236.789C870.895 236.829 870.854 236.885 870.834 236.951L868.85 243.035C868.848 243.04 868.847 243.045 868.846 243.049C868.801 243.264 868.721 243.469 868.609 243.657C868.481 243.796 868.538 244.037 869.133 243.896C869.729 243.754 869.794 243.385 870.054 242.592C870.279 241.904 871.357 238.51 871.637 237.628C871.671 237.53 871.684 237.425 871.675 237.321C871.667 237.217 871.637 237.116 871.587 237.024C871.545 236.942 871.481 236.872 871.404 236.821C871.326 236.77 871.237 236.74 871.144 236.734V236.734Z" fill="url(#paint10_linear_12_8972)"/>
<path d="M868.774 237.589C868.655 237.872 867.126 242.764 867.045 243.018C866.965 243.271 867.311 243.35 867.311 243.35L869.205 237.322L869.209 237.309L869.196 237.31C869.105 237.302 869.013 237.325 868.936 237.376C868.86 237.426 868.803 237.501 868.774 237.589Z" fill="url(#paint11_linear_12_8972)"/>
<path d="M867.597 237.309C867.468 237.334 867.283 237.305 867.163 237.589C867.043 237.872 865.515 242.764 865.434 243.018C865.353 243.271 865.7 243.35 865.7 243.35L867.597 237.309Z" fill="url(#paint12_linear_12_8972)"/>
<path d="M865.92 237.309C865.826 237.3 865.733 237.323 865.654 237.374C865.575 237.424 865.516 237.5 865.485 237.589C865.366 237.872 863.837 242.764 863.756 243.017C863.676 243.271 864.022 243.35 864.022 243.35L865.92 237.309Z" fill="url(#paint13_linear_12_8972)"/>
<rect x="838.5" y="225.5" width="58" height="31" rx="3.5" stroke="black" stroke-opacity="0.06"/>
<rect x="902" y="226" width="57" height="30" rx="3" fill="white"/>
<g clip-path="url(#clip9_12_8972)">
<path d="M938.5 249H933.969L927.031 233H938.5V249Z" fill="#FC3F1D"/>
<path d="M938.5 249H933.969L927.031 233H938.5V249Z" fill="#2B2B2B"/>
<path fill-rule="evenodd" clip-rule="evenodd" d="M936.011 239.743C935.828 239.297 935.473 238.948 934.979 238.724C935.06 238.343 935.087 238.034 935.096 237.832H934.247C934.239 237.985 934.217 238.213 934.161 238.494C933.498 238.4 932.752 238.491 932.037 238.747C931.957 238.284 931.907 237.855 931.88 237.474C934.426 237.331 935.929 236.73 935.998 236.701L935.672 235.934C935.656 235.941 934.234 236.505 931.847 236.643C931.844 236.071 931.825 236.074 931.855 235.884L931.005 235.875C930.99 236.036 930.994 236.202 930.997 236.673C930.971 236.673 930.946 236.674 930.919 236.675C930.158 236.677 929.45 236.619 929.284 236.604L929.125 237.445C929.375 237.466 930.137 237.506 930.824 237.506C930.857 237.506 930.891 237.506 930.925 237.506C930.961 237.505 930.994 237.504 931.03 237.503C931.064 237.978 931.128 238.521 931.241 239.113C930.114 239.769 929.22 241.042 929.675 242.078C929.867 242.512 930.236 242.791 930.716 242.862C930.796 242.874 930.879 242.88 930.965 242.88C931.45 242.88 932.006 242.687 932.537 242.36C932.885 242.867 933.165 243.133 933.19 243.156L933.773 242.553C933.768 242.548 933.522 242.313 933.211 241.852C933.35 241.728 933.485 241.596 933.61 241.454C934.174 240.808 934.525 240.139 934.744 239.54C934.936 239.648 935.125 239.811 935.224 240.054C935.564 240.878 935.073 241.833 934.617 242.246L935.193 242.856C935.953 242.168 936.478 240.877 936.011 239.743ZM930.843 242.041C930.65 242.012 930.53 241.922 930.454 241.749C930.244 241.271 930.699 240.494 931.441 239.975C931.627 240.635 931.864 241.194 932.106 241.648C931.653 241.935 931.189 242.091 930.843 242.041ZM932.966 240.913C932.906 240.981 932.843 241.044 932.779 241.108C932.568 240.688 932.365 240.177 932.209 239.572C932.684 239.385 933.173 239.285 933.627 239.285C933.73 239.285 933.831 239.29 933.93 239.301C933.74 239.806 933.441 240.37 932.966 240.913Z" fill="white"/>
<path d="M922.5 233H927.031L933.969 249H922.5V233Z" fill="#FC3F1D"/>
<path d="M922.5 233H927.031L933.969 249H922.5V233Z" fill="url(#paint14_linear_12_8972)" fill-opacity="0.4"/>
<path fill-rule="evenodd" clip-rule="evenodd" d="M927.384 238.844L924.625 245.219L925.754 245.219L926.433 243.516L929.224 243.516L929.902 245.219L931.031 245.219L928.272 238.844L927.384 238.844ZM927.828 240.156L928.856 242.656L926.8 242.656L927.828 240.156Z" fill="white"/>
</g>
<rect x="901.5" y="225.5" width="58" height="31" rx="3.5" stroke="black" stroke-opacity="0.06"/>
</g>
<defs>
<linearGradient id="paint0_linear_12_8972" x1="18.7998" y1="666.8" x2="24" y2="691.2" gradientUnits="userSpaceOnUse">
<stop stop-color="#FED35A"/>
<stop offset="1" stop-color="#FFBC00"/>
</linearGradient>
<linearGradient id="paint1_linear_12_8972" x1="-10.0002" y1="707.6" x2="26.3998" y2="669.6" gradientUnits="userSpaceOnUse">
<stop stop-color="white"/>
<stop offset="1" stop-color="#FED35A" stop-opacity="0"/>
</linearGradient>
<linearGradient id="paint2_linear_12_8972" x1="61.5" y1="638.75" x2="22.75" y2="672.5" gradientUnits="userSpaceOnUse">
<stop stop-color="white"/>
<stop offset="1" stop-color="white" stop-opacity="0"/>
</linearGradient>
<linearGradient id="paint3_linear_12_8972" x1="16.4" y1="-7.80505" x2="16.4" y2="35.9135" gradientUnits="userSpaceOnUse">
<stop stop-color="#FFE55B"/>
<stop offset="1" stop-color="#FFCC00"/>
</linearGradient>
<linearGradient id="paint4_linear_12_8972" x1="910.97" y1="112.185" x2="889.184" y2="141.063" gradientUnits="userSpaceOnUse">
<stop stop-color="white"/>
<stop offset="1" stop-color="white" stop-opacity="0"/>
</linearGradient>
<linearGradient id="paint5_linear_12_8972" x1="646.422" y1="163.028" x2="606.151" y2="203.178" gradientUnits="userSpaceOnUse">
<stop stop-color="#FFDA3E"/>
<stop offset="1" stop-color="#FF3333"/>
</linearGradient>
<linearGradient id="paint6_linear_12_8972" x1="866.248" y1="202.751" x2="873.001" y2="212.501" gradientUnits="userSpaceOnUse">
<stop offset="0.02" stop-color="#0151AE"/>
<stop offset="1" stop-color="#036DE6"/>
</linearGradient>
<radialGradient id="paint7_radial_12_8972" cx="0" cy="0" r="1" gradientUnits="userSpaceOnUse" gradientTransform="translate(868.502 206.666) rotate(65.2249) scale(4.77261 11.5813)">
<stop stop-color="#89C0FF"/>
<stop offset="0.61" stop-color="#1884FF"/>
<stop offset="1" stop-color="#1884FF"/>
</radialGradient>
<linearGradient id="paint8_linear_12_8972" x1="936.097" y1="198.218" x2="932.599" y2="207.49" gradientUnits="userSpaceOnUse">
<stop stop-color="white"/>
<stop offset="1" stop-color="white" stop-opacity="0"/>
</linearGradient>
<linearGradient id="paint9_linear_12_8972" x1="867.51" y1="245.773" x2="867.51" y2="236.203" gradientUnits="userSpaceOnUse">
<stop offset="0.0852" stop-color="#C70100"/>
<stop offset="0.19477" stop-color="#E11C1B"/>
<stop offset="0.97902" stop-color="#E11C1B"/>
</linearGradient>
<linearGradient id="paint10_linear_12_8972" x1="869.032" y1="244.029" x2="871.265" y2="236.756" gradientUnits="userSpaceOnUse">
<stop stop-color="#E52F2D"/>
<stop offset="0.07468" stop-color="#E63634"/>
<stop offset="1" stop-color="#EF8883"/>
</linearGradient>
<linearGradient id="paint11_linear_12_8972" x1="867.185" y1="243.212" x2="869.582" y2="235.455" gradientUnits="userSpaceOnUse">
<stop offset="0.02544" stop-color="#E52F2D"/>
<stop offset="0.51935" stop-color="#EA4A46"/>
<stop offset="1" stop-color="#EF6862"/>
</linearGradient>
<linearGradient id="paint12_linear_12_8972" x1="1199.29" y1="2012.76" x2="1861.1" y2="1241.24" gradientUnits="userSpaceOnUse">
<stop offset="0.02544" stop-color="#E52F2D"/>
<stop offset="0.51935" stop-color="#EA4A46"/>
<stop offset="1" stop-color="#EF6862"/>
</linearGradient>
<linearGradient id="paint13_linear_12_8972" x1="1110.74" y1="1938.78" x2="1772.8" y2="1167.22" gradientUnits="userSpaceOnUse">
<stop offset="0.02544" stop-color="#E52F2D"/>
<stop offset="0.51935" stop-color="#EA4A46"/>
<stop offset="1" stop-color="#EF6862"/>
</linearGradient>
<linearGradient id="paint14_linear_12_8972" x1="943.376" y1="231.168" x2="926.331" y2="245.854" gradientUnits="userSpaceOnUse">
<stop stop-color="white"/>
<stop offset="1" stop-color="white" stop-opacity="0"/>
</linearGradient>
<clipPath id="clip0_12_8972">
<rect width="1366" height="768" fill="white"/>
</clipPath>
<clipPath id="clip1_12_8972">
<rect width="20" height="20" fill="white" transform="translate(1288 46)"/>
</clipPath>
<clipPath id="clip2_12_8972">
<rect width="16" height="16" fill="white" transform="translate(1334 48)"/>
</clipPath>
<clipPath id="clip3_12_8972">
<rect width="32.8" height="32.8" fill="white" transform="translate(594.6 108.4)"/>
</clipPath>
<clipPath id="clip4_12_8972">
<rect width="32.8" height="32.8" fill="white" transform="translate(594.6 108.4)"/>
</clipPath>
<clipPath id="clip5_12_8972">
<rect x="594.6" y="108.4" width="32.8" height="32.8" rx="16.4" fill="white"/>
</clipPath>
<clipPath id="clip6_12_8972">
<rect width="31.4333" height="31.4333" fill="white" transform="translate(595.283 199.083)"/>
</clipPath>
<clipPath id="clip7_12_8972">
<rect width="108.8" height="21.05" fill="white" transform="translate(700.6 212.475)"/>
</clipPath>
<clipPath id="clip8_12_8972">
<rect x="859.5" y="197" width="16" height="16" rx="8" fill="white"/>
</clipPath>
<clipPath id="clip9_12_8972">
<path d="M922.5 241C922.5 236.582 926.082 233 930.5 233V233C934.918 233 938.5 236.582 938.5 241V241C938.5 245.418 934.918 249 930.5 249V249C926.082 249 922.5 245.418 922.5 241V241Z" fill="white"/>
</clipPath>
</defs>
</svg>
